HIERARCHY
ROOT Hips
{
 OFFSET 0.000000 0.000000 0.000000
 CHANNELS 6 Xposition Yposition Zposition Yrotation Xrotation Zrotation
 JOINT Chest
 {
  OFFSET 0.000000 9.857222 0.000240
  CHANNELS 3 Yrotation Xrotation Zrotation
  JOINT Chest2
  {
   OFFSET 0.000000 10.876940 -0.000436
   CHANNELS 3 Yrotation Xrotation Zrotation
   JOINT Chest3
   {
    OFFSET 0.000000 9.827798 0.000000
    CHANNELS 3 Yrotation Xrotation Zrotation
    JOINT Chest4
    {
     OFFSET 0.000000 9.827798 0.000000
     CHANNELS 3 Yrotation Xrotation Zrotation
     JOINT Neck
     {
      OFFSET 0.000000 13.831992 0.000000
      CHANNELS 3 Yrotation Xrotation Zrotation
      JOINT Head
      {
       OFFSET 0.000000 9.147643 -0.001036
       CHANNELS 3 Yrotation Xrotation Zrotation
       End Site
       {
        OFFSET 0.000000 17.515799 -0.000541
       }
      }
     }
     JOINT RightCollar
     {
      OFFSET -3.001579 7.717577 0.000000
      CHANNELS 3 Yrotation Xrotation Zrotation
      JOINT RightShoulder
      {
       OFFSET -14.002642 0.000000 0.000000
       CHANNELS 3 Yrotation Xrotation Zrotation
       JOINT RightElbow
       {
        OFFSET -30.053852 0.000000 0.000000
        CHANNELS 3 Yrotation Xrotation Zrotation
        JOINT RightWrist
        {
         OFFSET -24.564923 0.000000 -0.000000
         CHANNELS 3 Yrotation Xrotation Zrotation
         End Site
         {
          OFFSET -18.334355 0.000000 0.000000
         }
        }
       }
      }
     }
     JOINT LeftCollar
     {
      OFFSET 3.001579 7.717577 0.000000
      CHANNELS 3 Yrotation Xrotation Zrotation
      JOINT LeftShoulder
      {
       OFFSET 14.002642 0.000000 0.000000
       CHANNELS 3 Yrotation Xrotation Zrotation
       JOINT LeftElbow
       {
        OFFSET 30.053852 0.000000 0.000000
        CHANNELS 3 Yrotation Xrotation Zrotation
        JOINT LeftWrist
        {
         OFFSET 24.564923 0.000000 -0.000000
         CHANNELS 3 Yrotation Xrotation Zrotation
         End Site
         {
          OFFSET 18.334355 0.000000 0.000000
         }
        }
       }
      }
     }
    }
   }
  }
 }
 JOINT RightHip
 {
  OFFSET -8.003235 -0.001175 -0.000120
  CHANNELS 3 Yrotation Xrotation Zrotation
  JOINT RightKnee
  {
   OFFSET 0.000000 -41.759727 0.000113
   CHANNELS 3 Yrotation Xrotation Zrotation
   JOINT RightAnkle
   {
    OFFSET 0.000000 -40.728748 0.000159
    CHANNELS 3 Yrotation Xrotation Zrotation
    JOINT RightToe
    {
     OFFSET 0.000000 -6.515296 14.732841
     CHANNELS 3 Yrotation Xrotation Zrotation
     End Site
     {
      OFFSET 0.000000 -1.502839 6.412115
     }
    }
   }
  }
 }
 JOINT LeftHip
 {
  OFFSET 8.003235 -0.001175 -0.000120
  CHANNELS 3 Yrotation Xrotation Zrotation
  JOINT LeftKnee
  {
   OFFSET 0.000000 -41.759727 0.000113
   CHANNELS 3 Yrotation Xrotation Zrotation
   JOINT LeftAnkle
   {
    OFFSET 0.000000 -40.728748 0.000159
    CHANNELS 3 Yrotation Xrotation Zrotation
    JOINT LeftToe
    {
     OFFSET 0.000000 -6.515296 14.732841
     CHANNELS 3 Yrotation Xrotation Zrotation
     End Site
     {
      OFFSET 0.000000 -1.502839 6.412115
     }
    }
   }
  }
 }
}
MOTION
Frames: 6
Frame Time: 0.016667
24.092206 59.295699 -14.059382 -41.847900 47.005071 -5.445072 6.572137 -3.763920 -2.620408 0.049892 -1.172793 0.431814 0.049892 -1.172793 0.431814 0.038246 -0.879560 0.323945 -7.586508 2.940950 5.671158 -19.169628 -29.133642 16.345403 17.870919 9.805027 -8.084973 64.312488 15.647034 -37.517804 4.667071 -3.790495 -9.450776 1.566315 5.039194 -11.847986 -13.898358 9.440887 2.992084 -53.378907 3.747681 34.147855 -13.790688 -2.449831 18.171006 -1.971252 1.820031 15.296943 -155.585578 -56.343643 160.894823 -76.441404 78.077714 -86.989079 4.385480 -11.279196 -4.223026 -2.169974 -2.355928 -0.669094 -158.140047 -47.128191 -159.280443 -134.279926 68.081830 -150.573071 -8.725966 -12.518454 4.258461 6.153178 0.465442 2.827836
23.848433 59.800930 -13.996714 -41.054266 46.265277 -5.200318 6.063080 -3.321605 -2.300841 0.077186 -1.090668 0.408752 0.077186 -1.090668 0.408752 0.058617 -0.817950 0.306692 -7.574555 2.932978 5.715943 -19.173334 -29.140237 16.432722 17.673995 9.898665 -7.952367 64.384912 15.645330 -37.566024 4.735860 -3.617980 -9.548367 1.566813 5.142056 -11.837136 -14.105229 9.259216 2.989583 -53.267465 3.784489 34.069873 -14.012299 -2.744036 18.226785 -1.967081 1.758015 15.256856 -154.441847 -57.623192 159.185270 -73.766624 78.023481 -84.251509 4.271413 -11.594548 -4.264317 -2.078369 -2.234646 -0.737938 -158.460273 -48.341438 -159.921642 -133.837001 68.649957 -149.887259 -8.312874 -12.497334 4.337546 5.631999 0.348397 2.578210
23.546252 60.408974 -13.921284 -40.090236 45.500152 -4.942833 5.424791 -2.875117 -1.881142 0.113479 -1.025357 0.387953 0.113479 -1.025357 0.387953 0.085758 -0.768946 0.291148 -7.579774 2.971912 5.759627 -19.195829 -29.057681 16.511759 17.527851 9.976549 -7.785715 64.452044 15.698768 -37.430993 4.862926 -3.433682 -9.699305 1.546221 5.210944 -11.954647 -14.110957 9.215408 3.042966 -53.297705 3.822296 33.995403 -14.237402 -3.121125 18.342693 -1.947720 1.601216 15.227005 -152.883747 -59.017050 156.954904 -70.212225 77.819008 -80.667072 4.099579 -11.938674 -4.260407 -1.946672 -2.075990 -0.798767 -158.575800 -49.726400 -160.832871 -133.280573 69.348998 -149.207525 -7.999723 -12.470079 4.430978 5.021063 0.200281 2.299538
23.234362 61.121912 -13.821086 -39.683650 44.828724 -4.956683 5.114815 -2.510829 -1.599080 0.167232 -0.974442 0.372790 0.167232 -0.974442 0.372790 0.126015 -0.730730 0.279852 -7.596828 3.041270 5.801831 -19.231404 -28.917307 16.584168 17.428463 9.980502 -7.626160 64.428191 15.893147 -37.141629 5.087239 -3.420069 -9.903943 1.537213 5.183820 -12.093620 -14.087515 9.194373 3.093856 -53.367664 3.831343 33.930951 -14.350749 -3.286575 18.354621 -1.959261 1.603613 15.201324 -150.928722 -60.442731 154.715794 -65.998655 77.449171 -76.407961 4.161808 -12.190324 -4.242078 -1.875891 -1.961354 -0.877726 -158.493788 -51.180384 -161.520461 -133.011978 70.206163 -148.741124 -8.035937 -12.529281 4.428101 4.578145 0.053268 2.100220
22.888453 61.911349 -13.669580 -39.494768 44.101713 -5.007959 4.987854 -2.107937 -1.428671 0.206466 -0.935704 0.363090 0.206466 -0.935704 0.363090 0.155402 -0.701656 0.272628 -7.624628 3.135738 5.827389 -19.271027 -28.732698 16.620190 17.274472 10.052432 -7.501095 64.408210 16.126972 -36.802105 5.357804 -3.518238 -10.162270 1.539966 5.155705 -12.121009 -14.130529 9.095399 3.109311 -53.370303 3.929547 33.834291 -14.287627 -3.136568 18.235795 -2.060864 1.628412 15.123355 -148.648593 -62.053434 152.375851 -61.620103 76.815367 -71.951765 4.138630 -12.413616 -4.181856 -1.737418 -1.855680 -0.919780 -158.377118 -52.863723 -162.075238 -133.215743 71.191099 -148.641616 -8.346901 -12.819919 4.362123 4.199012 -0.013144 1.927805
22.518607 62.771338 -13.456926 -39.274352 43.385965 -4.978424 4.839549 -1.718543 -1.315190 0.244020 -0.893097 0.355560 0.244020 -0.893097 0.355560 0.183531 -0.669681 0.267021 -7.661096 3.233714 5.857709 -19.329727 -28.538484 16.669488 17.040365 10.130628 -7.408508 64.420115 16.400766 -36.382994 5.618773 -3.609421 -10.455846 1.531666 5.140172 -12.097412 -14.250510 9.032016 3.077261 -53.332305 4.002472 33.847594 -14.168252 -2.840070 17.999863 -2.214620 1.571734 15.014971 -146.163656 -63.742418 149.766501 -57.270139 76.131387 -67.498765 4.077945 -12.660028 -4.042648 -1.663607 -1.749765 -0.984416 -158.364969 -54.688945 -162.536325 -133.429548 72.246125 -148.567615 -8.677621 -13.203466 4.318485 3.796132 -0.073925 1.745929
